<?xml version="1.0" encoding="UTF-8"?>
<svg version="1.1" xmlns="http://www.w3.org/2000/svg" width="1600" height="1600">
<path d="M0 0 C1.20254425 0.0102269 1.20254425 0.0102269 2.42938232 0.0206604 C50.74950864 0.4426572 98.93414498 10.23869092 142.5 31.4375 C143.34771973 31.84838867 144.19543945 32.25927734 145.06884766 32.68261719 C167.40287624 43.63419741 187.97310468 57.55052817 206.28125 74.40234375 C208.27699099 76.2329442 210.31230611 77.99586483 212.375 79.75 C220.67439722 86.98882516 228.47255821 94.9624052 235.5 103.4375 C235.94923828 103.97294434 236.39847656 104.50838867 236.86132812 105.06005859 C270.37113037 145.08565572 293.96956729 191.50599698 311.5 240.4375 C311.74256531 241.11063232 311.98513062 241.78376465 312.23504639 242.47729492 C343.81220134 330.23405784 355.07505519 425.25927709 362.6875 533.5 C362.77296082 534.78413788 362.85842163 536.06827576 362.94647217 537.3913269 C363.80305804 550.40577647 364.55698284 563.40671639 364.91015625 576.4453125 C364.97175307 578.45304387 365.03335767 580.46077499 365.0949707 582.46850586 C365.20367281 586.08487194 365.26356554 589.69690662 365.28979492 593.31469727 C365.51889031 604.82386802 368.45705176 613.30950867 373.58990479 623.55239868 C375.43415181 627.3724303 376.66452195 631.36463467 377.8125 635.4375 C378.05049316 636.27394043 378.28848633 637.11038086 378.53369141 637.97216797 C379.21833608 640.45406357 379.86761939 642.94182763 380.5 645.4375 C380.67934082 646.12618164 380.85868164 646.81486328 381.04345703 647.52441406 C387.9669818 675.45227662 385.85376648 712.62736724 372.48937225 738.38534164 C369.22573425 744.75237716 368.94343231 750.29175054 369.01757812 757.36035156 C369.01170937 759.10127327 369.01170937 759.10127327 369.00572205 760.87736511 C368.99976708 763.3850475 369.00288065 765.89276461 369.0141449 768.40042877 C369.03147009 772.37866217 369.02443072 776.35644971 369.0098877 780.33465576 C368.98096988 789.50127343 368.99154336 798.66776299 369.00258636 807.83440399 C369.0122982 816.23215548 369.01334726 824.62968135 368.98270559 833.02739501 C368.96732823 837.60087752 368.98245113 842.17369161 369.00305176 846.74713135 C368.9973392 849.1637807 368.99051963 851.58042777 368.98242188 853.99707031 C368.99373642 855.06763168 369.00505096 856.13819305 369.01670837 857.24119568 C368.89729393 872.26279315 363.2821283 886.02829131 352.8125 896.75 C347.60091016 901.83905903 342.25832671 905.60275741 335.5 908.4375 C334.076875 909.05238281 334.076875 909.05238281 332.625 909.6796875 C318.75180102 914.81135549 302.08459786 914.18614595 288.5 908.4375 C274.52065506 901.54152287 263.46756183 889.55633153 258.37573242 874.82055664 C255.74536379 865.99481379 255.91444568 857.30924994 255.92578125 848.18359375 C255.91328033 846.31542181 255.89893119 844.44726144 255.88285828 842.57911682 C255.8450168 837.66931758 255.82970019 832.75971818 255.82006836 827.84979248 C255.80768511 822.98247574 255.77804562 818.11528211 255.74804688 813.24804688 C255.73938819 811.81853431 255.73938819 811.81853431 255.73055458 810.36014271 C255.71285816 807.48878914 255.69450427 804.6174408 255.67578125 801.74609375 C255.66655703 800.33140084 255.66655703 800.33140084 255.65714645 798.88812828 C255.613598 792.40449636 255.56100235 785.9209908 255.5 779.4375 C255.48802456 778.112824 255.48802456 778.112824 255.47580719 776.76138687 C255.42744161 771.71234598 255.35790589 766.66437124 255.25737572 761.61609077 C255.22955524 760.0990746 255.20764781 758.58193553 255.19237709 757.06474113 C255.07488199 746.10358331 253.07876313 737.34631323 248.578125 727.375 C234.83026441 696.32336589 239.78326442 656.51997446 250.5 625.4375 C250.85473389 624.65068848 251.20946777 623.86387695 251.57495117 623.05322266 C256.10091921 610.25532834 251.92334158 591.01803649 251.25 577.75 C251.18375427 576.43504547 251.11750854 575.12009094 251.04925537 573.76528931 C246.20233576 478.17369539 237.45623926 380.60852136 190.5 244.4375 C190.14196289 243.62506836 189.78392578 242.81263672 189.41503906 241.97558594 C180.10603874 220.91454033 167.93041994 201.36149143 153.5 183.4375 C153.04109375 182.86741211 152.5821875 182.29732422 152.109375 181.70996094 C136.59479037 162.62574317 118.34909398 147.72001469 96.5 136.4375 C95.83274902 136.09090332 95.16549805 135.74430664 94.47802734 135.38720703 C81.62673256 128.80227163 67.95633432 123.4997188 53.83251953 120.39108276 C53.02138702 120.21215925 52.21025452 120.03323574 51.37454224 119.8488903 C50.44664383 119.6452521 50.44664383 119.6452521 49.5 119.4375 C49.4996337 120.40719206 49.4996337 120.40719206 49.49925999 121.39647387 C49.47253232 191.77667728 49.44086369 262.15687781 49.38336182 332.5370636 C49.38250431 333.5883428 49.3816468 334.639622 49.3807633 335.72275815 C49.36209776 358.5697751 49.34254526 381.41679121 49.32207905 404.26380662 C49.31204785 415.46794451 49.30221265 426.67208256 49.29248047 437.8762207 C49.29150866 438.99116833 49.29053686 440.10611595 49.2895356 441.25484987 C49.25812727 477.3948331 49.2396621 513.53480887 49.22790753 549.67480339 C49.21576004 586.8127103 49.19055759 623.950586 49.14892386 661.08847212 C49.14304975 666.33369352 49.13732492 671.57891507 49.13169098 676.82413673 C49.13057752 677.85647364 49.12946406 678.88881055 49.12831686 679.9524304 C49.1107757 696.57156536 49.10700042 713.19067633 49.10837079 729.8098193 C49.10945472 746.51684651 49.09604133 763.22381225 49.06783572 779.93081614 C49.05151776 789.85728321 49.0463095 799.78361119 49.05702825 809.71008667 C49.06309514 816.34340404 49.0546569 822.97660132 49.0345077 829.60989058 C49.02344431 833.38794248 49.0186086 837.1657118 49.03148755 840.94376441 C49.04523534 845.01998706 49.02794269 849.09550641 49.00780869 853.17170238 C49.01671239 854.33599725 49.0256161 855.50029212 49.03478962 856.69986865 C48.8901524 871.96456561 43.48049956 885.8251438 32.8125 896.75 C27.60091016 901.83905903 22.25832671 905.60275741 15.5 908.4375 C14.076875 909.05238281 14.076875 909.05238281 12.625 909.6796875 C-1.24819898 914.81135549 -17.91540214 914.18614595 -31.5 908.4375 C-44.39551078 902.07617565 -55.35969616 891.0489605 -60.60754773 877.59889215 C-63.36820671 869.26457195 -64.06737747 861.79792931 -64.00336456 853.05512333 C-64.00754695 851.64404618 -64.01347923 850.23297334 -64.02098203 848.82190993 C-64.0364692 844.96439285 -64.02728613 841.10727954 -64.01387022 837.24976949 C-64.00368319 833.04547511 -64.01677893 828.84124053 -64.02684355 824.63695472 C-64.04126644 817.27494284 -64.04086678 809.91304836 -64.03065491 802.55103111 C-64.01551068 791.60332845 -64.02326737 780.65572464 -64.03548814 769.70802263 C-64.05654377 750.15398321 -64.0547284 730.59999609 -64.04317249 711.04595171 C-64.03310903 693.93323138 -64.03048403 676.82053022 -64.03526306 659.70780754 C-64.0355686 658.5725422 -64.03587414 657.43727685 -64.03618894 656.26760953 C-64.0374343 651.65915023 -64.0387079 647.05069095 -64.040028 642.44223168 C-64.05226344 599.21297199 -64.04117118 555.98374559 -64.01964041 512.75449104 C-64.00065934 474.35250418 -64.00235549 435.95057038 -64.02148438 397.54858398 C-64.04290595 354.3997413 -64.05139441 311.25092803 -64.03903532 268.10208076 C-64.03775246 263.50172326 -64.0365011 258.90136574 -64.03526306 254.30100822 C-64.03494675 253.16829011 -64.03463044 252.03557199 -64.03430455 250.86852908 C-64.02975579 233.767753 -64.03507368 216.66699819 -64.04518127 199.56622505 C-64.05661792 180.11994375 -64.05375985 160.6737229 -64.0320583 141.22744913 C-64.02031499 130.34575699 -64.01954375 119.4641958 -64.034643 108.58250707 C-64.04361872 101.31165803 -64.03801912 94.04091386 -64.02062392 86.77008034 C-64.01111933 82.62894804 -64.00783303 78.48807569 -64.02224785 74.34695167 C-64.03525018 70.57304978 -64.02956469 66.79963635 -64.00952521 63.02576948 C-64.00365223 61.0428447 -64.0171975 59.05989067 -64.03174233 57.07701054 C-63.89437752 40.5482696 -58.71876639 27.44514989 -47.1875 15.625 C-33.43024245 2.50326794 -18.3224403 -0.28900575 0 0 Z " fill="#3B5262" transform="translate(487.5,263.5625)"/>
<path d="M0 0 C12.78017876 10.10046386 19.97584659 21.27355366 23.6640625 37.10546875 C24.18300531 41.90565816 24.20278981 46.65019869 24.16742706 51.47502136 C24.17160947 52.88469572 24.17754175 54.29436575 24.18504453 55.70402634 C24.20053145 59.55764178 24.19134878 63.41085302 24.17793272 67.26446141 C24.16774559 71.46451141 24.18084146 75.66450155 24.19090605 79.86454296 C24.20532883 87.21907285 24.20492935 94.57348522 24.19471741 101.92802048 C24.17957313 112.86454402 24.18732987 123.80096862 24.19955064 134.73749152 C24.22060599 154.27128324 24.21879107 173.8050226 24.20723499 193.3388193 C24.19717174 210.43319105 24.19454644 227.52754362 24.19932556 244.62191772 C24.1996311 245.75594185 24.19993664 246.88996597 24.20025144 248.05835446 C24.2014968 252.66175804 24.2027704 257.26516162 24.2040905 261.86856518 C24.21632579 305.04973284 24.20523377 348.23086716 24.18370291 391.41202967 C24.16472057 429.77372774 24.16641908 468.1353727 24.18554688 506.49707031 C24.2069666 549.59939164 24.21545806 592.70168352 24.20309782 635.80400944 C24.20181496 640.39901288 24.20056359 644.99401632 24.19932556 649.58901978 C24.19900925 650.72042217 24.19869294 651.85182456 24.19836705 653.01751187 C24.19381765 670.10090588 24.19913734 687.18427861 24.20924377 704.26766968 C24.22067826 723.69275288 24.21782691 743.11777555 24.1961208 762.54285121 C24.1843741 773.41364473 24.18361115 784.28430718 24.1987055 795.1550973 C24.20767708 802.4174053 24.2020891 809.67960824 24.18468642 816.94190067 C24.17517613 821.078975 24.17190746 825.215789 24.18631035 829.35285509 C24.19929805 833.12190453 24.1936479 836.8904644 24.17358771 840.65947865 C24.16770502 842.64223167 24.1812729 844.62501391 24.19580483 846.6077224 C24.06572373 862.21222216 18.91681856 876.21430086 7.9765625 887.41796875 C2.76497266 892.50702778 -2.57761079 896.27072616 -9.3359375 899.10546875 C-10.7590625 899.72035156 -10.7590625 899.72035156 -12.2109375 900.34765625 C-26.08413648 905.47932424 -42.75133964 904.8541147 -56.3359375 899.10546875 C-69.23144828 892.7441444 -80.19563366 881.71692925 -85.44348523 868.2668609 C-88.20414421 859.9325407 -88.90331497 852.46589806 -88.83930206 843.72309208 C-88.84348445 842.31201493 -88.84941673 840.90094209 -88.85691953 839.48987868 C-88.8724067 835.6323616 -88.86322363 831.77524829 -88.84980772 827.91773824 C-88.83962069 823.71344386 -88.85271643 819.50920928 -88.86278105 815.30492347 C-88.87720394 807.94291159 -88.87680428 800.58101711 -88.86659241 793.21899986 C-88.85144818 782.2712972 -88.85920487 771.32369339 -88.87142564 760.37599138 C-88.89248127 740.82195196 -88.8906659 721.26796484 -88.87910999 701.71392046 C-88.86904653 684.60120013 -88.86642153 667.48849897 -88.87120056 650.37577629 C-88.8715061 649.24051095 -88.87181164 648.1052456 -88.87212644 646.93557828 C-88.8733718 642.32711898 -88.8746454 637.7186597 -88.8759655 633.11020043 C-88.88820094 589.88094074 -88.87710868 546.65171434 -88.85557791 503.42245979 C-88.83659684 465.02047293 -88.83829299 426.61853913 -88.85742188 388.21655273 C-88.87884345 345.06771005 -88.88733191 301.91889678 -88.87497282 258.77004951 C-88.87368996 254.16969201 -88.8724386 249.56933449 -88.87120056 244.96897697 C-88.87088425 243.83625886 -88.87056794 242.70354074 -88.87024205 241.53649783 C-88.86569329 224.43572175 -88.87101118 207.33496694 -88.88111877 190.2341938 C-88.89255542 170.7879125 -88.88969735 151.34169165 -88.8679958 131.89541788 C-88.85625249 121.01372574 -88.85548125 110.13216455 -88.8705805 99.25047582 C-88.87955622 91.97962678 -88.87395662 84.70888261 -88.85656142 77.43804909 C-88.84705683 73.29691679 -88.84377053 69.15604444 -88.85818535 65.01492042 C-88.87118768 61.24101853 -88.86550219 57.4676051 -88.84546271 53.69373823 C-88.83958973 51.71081345 -88.853135 49.72785942 -88.86767983 47.74497929 C-88.73031502 31.21623835 -83.55470389 18.11311864 -72.0234375 6.29296875 C-52.92002888 -11.92794545 -22.10251057 -15.28919979 0 0 Z " fill="#93472A" transform="translate(1152.3359375,272.89453125)"/>
<path d="M0 0 C7.84779595 3.44537383 13.58392271 11.55953356 19 18 C19.4444043 18.51997559 19.88880859 19.03995117 20.34667969 19.57568359 C29.27545544 30.05894457 37.05363538 41.1103521 44.50048828 52.68652344 C45.74415919 54.6052837 47.0135988 56.49865054 48.30859375 58.3828125 C58.2628778 73.40436791 64.84538428 91.51706737 69 109 C69.31710937 110.26972656 69.63421875 111.53945313 69.9609375 112.84765625 C76.0889373 140.56875669 74.20904609 176.46879526 60.98937225 201.94784164 C57.72573425 208.31487716 57.44343231 213.85425054 57.51757812 220.92285156 C57.51170937 222.66377327 57.51170937 222.66377327 57.50572205 224.43986511 C57.49976708 226.9475475 57.50288065 229.45526461 57.5141449 231.96292877 C57.53147009 235.94116217 57.52443072 239.91894971 57.5098877 243.89715576 C57.48096988 253.06377343 57.49154336 262.23026299 57.50258636 271.39690399 C57.5122982 279.79465548 57.51334726 288.19218135 57.48270559 296.58989501 C57.46732823 301.16337752 57.48245113 305.73619161 57.50305176 310.30963135 C57.4973392 312.7262807 57.49051963 315.14292777 57.48242188 317.55957031 C57.49939369 319.16541237 57.49939369 319.16541237 57.51670837 320.80369568 C57.39729393 335.82529315 51.7821283 349.59079131 41.3125 360.3125 C36.10091016 365.40155903 30.75832671 369.16525741 24 372 C22.576875 372.61488281 22.576875 372.61488281 21.125 373.2421875 C7.25180102 378.37385549 -9.41540214 377.74864595 -23 372 C-36.97934494 365.10402287 -48.03243817 353.11883153 -53.12426758 338.38305664 C-55.75463621 329.55731379 -55.58555432 320.87174994 -55.57421875 311.74609375 C-55.58671967 309.87792181 -55.60106881 308.00976144 -55.61714172 306.14161682 C-55.6549832 301.23181758 -55.67029981 296.32221818 -55.67993164 291.41229248 C-55.69231489 286.54497574 -55.72195438 281.67778211 -55.75195312 276.81054688 C-55.75772558 275.8575385 -55.76349804 274.90453012 -55.76944542 273.92264271 C-55.78714184 271.05128914 -55.80549573 268.1799408 -55.82421875 265.30859375 C-55.83036823 264.36546515 -55.83651772 263.42233654 -55.84285355 262.45062828 C-55.886402 255.96699636 -55.93899765 249.4834908 -56 243 C-56.01197544 241.675324 -56.01197544 241.675324 -56.02419281 240.32388687 C-56.07255839 235.27484598 -56.14209411 230.22687124 -56.24262428 225.17859077 C-56.27044476 223.6615746 -56.29235219 222.14443553 -56.30762291 220.62724113 C-56.42511801 209.66608331 -58.42123687 200.90881323 -62.921875 190.9375 C-73.32171239 167.44788549 -73.50475226 133.70560387 -67 109 C-66.67008057 107.74413086 -66.67008057 107.74413086 -66.33349609 106.46289062 C-64.1124105 98.2339994 -61.84169078 90.29450338 -57.8815918 82.72021484 C-56.86605124 80.73863114 -56.10759042 78.72616594 -55.375 76.625 C-48.03314088 57.99896053 -35.75232703 41.39553964 -23.3125 25.890625 C-21.93294976 24.1661872 -20.5860229 22.41353244 -19.3125 20.609375 C-18.879375 20.07828125 -18.44625 19.5471875 -18 19 C-17.34 19 -16.68 19 -16 19 C-15.79375 18.47664062 -15.5875 17.95328125 -15.375 17.4140625 C-13.39953173 13.94576877 -10.7335524 11.26328178 -8 8.375 C-7.18015625 7.49714844 -7.18015625 7.49714844 -6.34375 6.6015625 C-4.25718606 4.37180299 -2.15944305 2.15944305 0 0 Z " fill="#BC4210" transform="translate(799,800)"/>
<path d="M0 0 C6.6 0 13.2 0 20 0 C32.02408281 30.99072057 44.02870636 61.98884784 56 93 C60.85170445 92.46008499 65.40525689 91.76005219 70.1171875 90.44140625 C71.77041016 89.98604492 71.77041016 89.98604492 73.45703125 89.52148438 C75.14892578 89.04678711 75.14892578 89.04678711 76.875 88.5625 C84.54400025 86.4224165 92.16133055 84.41805633 100 83 C100.66 84.32 101.32 85.64 102 87 C102.33 58.62 102.66 30.24 103 1 C111.25 1 119.5 1 128 1 C134.40317897 8.51677532 134.40317897 8.51677532 135.83203125 12.17578125 C138.12131901 17.51016081 141.20347898 22.13442472 144.4375 26.9375 C145.54042536 28.62195601 146.64069612 30.30815321 147.73828125 31.99609375 C148.2792041 32.8247998 148.82012695 33.65350586 149.37744141 34.50732422 C150.98093217 36.97070681 152.57614159 39.43922329 154.16796875 41.91015625 C154.91639038 43.07140015 154.91639038 43.07140015 155.67993164 44.25610352 C156.61643338 45.71029974 157.55188414 47.16517354 158.48608398 48.62084961 C158.90575439 49.27190674 159.3254248 49.92296387 159.7578125 50.59375 C160.1202002 51.15771484 160.48258789 51.72167969 160.85595703 52.30273438 C162.1714903 54.25441753 163.57494903 56.12722207 165 58 C169.48136461 55.97668007 173.96126607 53.95016422 178.43994141 51.92089844 C179.95811497 51.2335326 181.47665901 50.54698432 182.99560547 49.86132812 C185.20121878 48.86552647 187.40540295 47.86661558 189.609375 46.8671875 C190.26927429 46.57004852 190.92917358 46.27290955 191.60906982 45.96676636 C197.83403685 43.1376246 203.86820491 40.06589754 210 37 C210.33 25.12 210.66 13.24 211 1 C217.6 1 224.2 1 231 1 C230.99097656 2.79824219 230.98195313 4.59648438 230.97265625 6.44921875 C230.8827955 24.94201765 230.8827955 24.94201765 239 41 C237.86328354 41.43101013 236.72656708 41.86202026 235.55540466 42.30609131 C233.07858145 43.74167776 232.16497014 44.4459543 231.33833504 47.2221756 C231.0944204 50.2002479 231.06937085 53.11453795 231.11352539 56.10253906 C231.10274963 57.23453735 231.09197388 58.36653564 231.08087158 59.53283691 C231.05344398 63.27775816 231.0753781 67.02069657 231.09765625 70.765625 C231.08827532 73.36066948 231.07582012 75.95570453 231.06040955 78.55072021 C231.03141426 84.68486785 231.03344357 90.81828775 231.05048412 96.95245719 C231.06815675 103.93681219 231.04622754 110.92086736 231.02097714 117.90517855 C230.96993015 132.27020397 230.96859757 146.63493014 231 161 C226.98071577 161.29206649 222.96416166 161.46849455 218.9375 161.625 C217.80376953 161.70878906 216.67003906 161.79257813 215.50195312 161.87890625 C207.20330724 162.12084928 207.20330724 162.12084928 203.72964478 158.88522339 C201.93273812 156.32761868 200.44417702 153.7693315 199 151 C198.0621422 149.5153622 197.11373811 148.03725538 196.1484375 146.5703125 C195.22186718 145.08984839 194.29744696 143.60803679 193.375 142.125 C187.54164247 132.81872101 181.56931055 123.60795808 175.56835938 114.40917969 C173.56484177 111.33154711 171.5726833 108.24667992 169.58251953 105.16040039 C168.2286383 103.06370892 166.86868463 100.97106465 165.5078125 98.87890625 C163.87168255 96.36086845 162.26464812 93.82786292 160.6796875 91.27734375 C159.98101563 90.17519531 159.28234375 89.07304688 158.5625 87.9375 C157.96566406 86.97714844 157.36882812 86.01679687 156.75390625 85.02734375 C155.88572266 84.02380859 155.88572266 84.02380859 155 83 C153.68 83 152.36 83 151 83 C148.48044501 80.36481326 147.19290076 77.42989211 145.875 74.0625 C145.54242187 73.22847656 145.20984375 72.39445312 144.8671875 71.53515625 C144 69 144 69 143.65966797 66.69628906 C142.85260122 63.39753066 141.43335593 61.16678186 139.578125 58.32421875 C138.53398438 56.71063477 138.53398438 56.71063477 137.46875 55.06445312 C136.72941787 53.93863708 135.9898329 52.81298703 135.25 51.6875 C133.81743225 49.48325232 132.38513458 47.27882909 130.953125 45.07421875 C130.31536133 44.10057373 129.67759766 43.12692871 129.02050781 42.1237793 C126.63917624 38.44215322 124.32385713 34.71817141 122 31 C122 73.9 122 116.8 122 161 C115.73 161 109.46 161 103 161 C102.67 140.87 102.34 120.74 102 100 C92.76 102.64 83.52 105.28 74 108 C70.37 108.99 66.74 109.98 63 111 C63.46897705 112.19488037 63.9379541 113.38976074 64.42114258 114.62084961 C66.17344712 119.08723367 67.92273162 123.55479556 69.67114258 128.02270508 C70.42586282 129.9501072 71.18138336 131.87719615 71.93774414 133.80395508 C73.0296545 136.58591522 74.11860733 139.36901801 75.20703125 142.15234375 C75.54152786 143.00271713 75.87602448 143.85309052 76.22065735 144.72923279 C76.70081551 145.95948936 76.70081551 145.95948936 77.19067383 147.21459961 C77.6070385 148.27716225 77.6070385 148.27716225 78.03181458 149.3611908 C79.44367741 153.20925186 80.70381596 157.11144789 82 161 C74.74 161 67.48 161 60 161 C55.91456393 151.30574493 52.02976816 141.54251385 48.1875 131.75 C47.58409594 130.21479989 46.98058102 128.67964336 46.37695312 127.14453125 C44.91669348 123.43018726 43.4579238 119.71526143 42 116 C34.22648892 117.1916885 26.45492604 118.39426798 18.6875 119.625 C17.83994141 119.7590625 16.99238281 119.893125 16.11914062 120.03125 C14.07938847 120.35392266 12.03968827 120.67692372 10 121 C8 114.25 8 114.25 8 112 C-1.9 112 -11.8 112 -22 112 C-22.99 115.3 -23.98 118.6 -25 122 C-26.16068258 125.18655628 -27.34233979 128.3496705 -28.57421875 131.5078125 C-29.0672625 132.78505692 -29.0672625 132.78505692 -29.57026672 134.08810425 C-30.60584566 136.76843889 -31.64657117 139.44673914 -32.6875 142.125 C-33.39682799 143.95820041 -34.10581538 145.79153266 -34.81445312 147.625 C-36.53841532 152.08512208 -38.26934568 156.54244754 -40 161 C-47.26 161 -54.52 161 -62 161 C-58.13129369 149.9465534 -54.1554603 138.94860639 -50 128 C-50.8971875 128.0721875 -51.794375 128.144375 -52.71875 128.21875 C-62.17294229 128.92195438 -71.52022894 129.0902294 -81 129 C-80.98428955 130.29079468 -80.98428955 130.29079468 -80.96826172 131.60766602 C-80.93365697 134.87869072 -80.90885248 138.14951394 -80.89013672 141.4206543 C-80.88023514 142.82172768 -80.86671031 144.22278133 -80.84912109 145.6237793 C-80.63685442 162.99843052 -80.98914848 180.54423128 -93.43603516 193.91796875 C-102.78035232 203.1791569 -114.71022203 204.28393404 -127.2734375 204.234375 C-132.0297962 203.93523294 -135.62758191 202.84101814 -140 201 C-140 195.06 -140 189.12 -140 183 C-138.02 183.33 -136.04 183.66 -134 184 C-131.16667212 184.21269295 -128.34067254 184.23003042 -125.5 184.25 C-124.76652344 184.270625 -124.03304687 184.29125 -123.27734375 184.3125 C-118.43543317 184.34714695 -115.20520651 183.64380587 -111 181 C-103.24421889 173.06795113 -102.98187435 163.78640539 -102.68359375 153.21875 C-102.66281265 152.51979614 -102.64203156 151.82084229 -102.62062073 151.10070801 C-102.55601465 148.90055741 -102.49666091 146.70030304 -102.4375 144.5 C-102.39422983 142.99478158 -102.35061307 141.48957307 -102.30664062 139.984375 C-102.20042681 136.32302256 -102.09891804 132.66155766 -102 129 C-102.95890137 129.00523682 -103.91780273 129.01047363 -104.90576172 129.01586914 C-108.45783559 129.03394679 -112.00990537 129.04544215 -115.56201172 129.05493164 C-117.10043013 129.05996552 -118.63884375 129.06679308 -120.17724609 129.07543945 C-122.38640526 129.08754639 -124.59550126 129.09323769 -126.8046875 129.09765625 C-127.83914505 129.10539818 -127.83914505 129.10539818 -128.89450073 129.11329651 C-133.77225659 129.11387171 -133.77225659 129.11387171 -136 128 C-135.67 122.72 -135.34 117.44 -135 112 C-130.62495854 111.97299357 -126.25008438 111.95315725 -121.875 111.9375 C-120.6375 111.92912109 -119.4 111.92074219 -118.125 111.91210938 C-116.92617188 111.90888672 -115.72734375 111.90566406 -114.4921875 111.90234375 C-113.39245605 111.89710693 -112.29272461 111.89187012 -111.15966797 111.88647461 C-108 112 -108 112 -102 113 C-102 76.04 -102 39.08 -102 1 C-95.07 1 -88.14 1 -81 1 C-81 37.63 -81 74.26 -81 112 C-68.13 111.34 -55.26 110.68 -42 110 C-41.01 107.03 -40.02 104.06 -39 101 C-37.974005 98.19961178 -36.93639784 95.40783809 -35.875 92.62109375 C-35.42577179 91.43660141 -35.42577179 91.43660141 -34.96746826 90.22817993 C-33.98077958 87.63034035 -32.99068303 85.03381877 -32 82.4375 C-31.48693298 81.0901326 -31.48693298 81.0901326 -30.96350098 79.71554565 C-24.23189621 62.05002431 -17.29648204 44.46684063 -10.296875 26.90600586 C-9.9067926 25.92602631 -9.51671021 24.94604675 -9.11480713 23.93637085 C-8.39185796 22.1209179 -7.66750637 20.30602239 -6.94134521 18.49185181 C-4.50334333 12.37042982 -2.22981075 6.20037866 0 0 Z M9 24 C8.52046875 25.74216797 8.52046875 25.74216797 8.03125 27.51953125 C3.35078572 43.88100268 -2.61901549 59.71250064 -8.6640625 75.60864258 C-9.01441055 76.5346376 -9.36475861 77.46063263 -9.72572327 78.41468811 C-10.39246074 80.17546887 -11.06353311 81.93461592 -11.73948669 83.69187927 C-12.0374263 84.4790181 -12.33536591 85.26615692 -12.64233398 86.07714844 C-12.90545883 86.76500427 -13.16858368 87.45286011 -13.43968201 88.16156006 C-14.14576956 90.15795767 -14.14576956 90.15795767 -14 93 C1.84 93 17.68 93 34 93 C33.34158959 89.04953752 32.87285012 86.24527095 31.51293945 82.6730957 C31.06160393 81.47442619 31.06160393 81.47442619 30.60115051 80.25154114 C30.27515366 79.40154037 29.9491568 78.55153961 29.61328125 77.67578125 C29.27378952 76.7749028 28.93429779 75.87402435 28.58451843 74.94584656 C27.49904528 72.06606639 26.40662036 69.18900498 25.3125 66.3125 C23.88589554 62.56084343 22.46434964 58.80737027 21.05078125 55.05078125 C20.70467804 54.13233429 20.35857483 53.21388733 20.00198364 52.26760864 C17.35674436 45.16155788 15.01459356 37.98574875 12.88606262 30.70832825 C12.31115093 28.78861958 11.66261539 26.89122862 11 25 C10.34 24.67 9.68 24.34 9 24 Z M205.328125 58.1953125 C204.35883057 58.66155029 203.38953613 59.12778809 202.39086914 59.6081543 C201.35438232 60.10871338 200.31789551 60.60927246 199.25 61.125 C190.86552219 65.156834 182.46874194 69.14761643 174 73 C177.33465547 79.19515461 180.93626012 85.13081917 184.8125 91 C188.66496186 96.87270347 192.49580159 102.75743114 196.265625 108.68359375 C196.80246162 109.52671616 196.80246162 109.52671616 197.35014343 110.38687134 C199.10960181 113.15097828 200.8659892 115.91697042 202.6184082 118.68554688 C203.26124756 119.69552734 203.90408691 120.70550781 204.56640625 121.74609375 C205.13302979 122.63997803 205.69965332 123.5338623 206.28344727 124.45483398 C208.06070894 127.09001432 209.9821695 129.5456581 212 132 C212.07739976 115.20210276 211.8352999 98.4192493 211.5 81.625 C211.45162966 79.12370165 211.40345152 76.62239957 211.35546875 74.12109375 C211.23918619 68.0806846 211.12056421 62.04032513 211 56 C209.0078556 56 207.07556429 57.35182092 205.328125 58.1953125 Z " fill="#075985" transform="translate(899,1279)"/>
<path d="M0 0 C2.16596712 2.10409816 3.66539985 3.94669894 5.05859375 6.6328125 C5.43798096 7.34783936 5.81736816 8.06286621 6.20825195 8.79956055 C6.81672974 9.95065308 6.81672974 9.95065308 7.4375 11.125 C19.59818294 33.47856676 36.2529736 53.88828774 56 70 C59.90110004 68.38382998 62.71523154 65.72626635 65.75 62.875 C66.28149658 62.38 66.81299316 61.885 67.3605957 61.375 C68.91308685 59.92290469 70.45773774 58.46294592 72 57 C72.74121094 56.30132813 73.48242188 55.60265625 74.24609375 54.8828125 C88.04010717 41.50511739 99.09059388 25.14986009 108.16015625 8.29296875 C109.63847184 5.64706632 111.15861824 3.38538949 113 1 C113.09375918 16.42147207 113.16413306 31.84292259 113.20724869 47.26461315 C113.227807 54.42642476 113.25579733 61.58805849 113.30175781 68.74975586 C113.3418334 74.99747021 113.36748164 81.24505562 113.37635398 87.49289495 C113.38153408 90.7961124 113.39571783 94.09887876 113.42292023 97.40199852 C113.45218344 101.10439811 113.45594631 104.80604731 113.45410156 108.50854492 C113.46848267 109.58389496 113.48286377 110.659245 113.49768066 111.7671814 C113.41721698 126.80394286 107.79066989 140.58204406 97.3125 151.3125 C92.10091016 156.40155903 86.75832671 160.16525741 80 163 C79.05125 163.40992188 78.1025 163.81984375 77.125 164.2421875 C63.25180102 169.37385549 46.58459786 168.74864595 33 163 C19.02338327 156.10536869 7.96765294 144.1214266 2.87792969 129.38745117 C0.24184436 120.54242185 0.39490282 111.82271974 0.390625 102.67578125 C0.37557544 100.802817 0.35883471 98.92986567 0.34051514 97.05693054 C0.29704251 92.13651941 0.27692864 87.21628412 0.26177979 82.29571533 C0.24248216 77.40861782 0.20015159 72.52172944 0.16015625 67.63476562 C-0.0136776 45.09023908 -0.03723644 22.54508799 0 0 Z " fill="#91472B" transform="translate(743,1009)"/>
<path d="M0 0 C3.04958378 0.58822568 4.86554906 1.44070037 7.22265625 3.44921875 C8.13893799 4.21600952 8.13893799 4.21600952 9.07373047 4.99829102 C9.73002441 5.55572998 10.38631836 6.11316895 11.0625 6.6875 C20.09819859 14.18385285 29.44200723 21.18523778 39 28 C39.8142041 28.58330078 40.6284082 29.16660156 41.46728516 29.76757812 C43.86068272 31.46933846 46.27006043 33.1451176 48.6875 34.8125 C49.40534668 35.32240479 50.12319336 35.83230957 50.86279297 36.35766602 C54.39194888 38.74581353 57.0793191 40.23648678 61.36328125 40.640625 C65 41 65 41 67.5 43.9375 C69 47 69 47 69 49 C69.721875 49.268125 70.44375 49.53625 71.1875 49.8125 C73.97590126 50.98982498 76.44095724 52.39145884 79 54 C78.71125 54.94875 78.4225 55.8975 78.125 56.875 C77.34072026 62.54682016 80.93303065 66.52611994 84 71 C84.63139893 71.95479248 85.26279785 72.90958496 85.91333008 73.89331055 C87.25048002 75.91361805 88.59549174 77.92874112 89.94775391 79.93896484 C92.60242291 83.89854609 95.19766231 87.89524709 97.79272461 91.89404297 C99.68394239 94.80702034 101.58294833 97.71477185 103.484375 100.62109375 C111.75963302 113.27619429 119.92565583 126.00002073 128.07104492 138.73901367 C132.11678956 145.06421487 136.17151246 151.38335583 140.25 157.6875 C140.67925781 158.35136719 141.10851562 159.01523438 141.55078125 159.69921875 C144.00495894 163.48701712 146.49583656 167.24375485 149 171 C148.01 140.805 148.01 140.805 147 110 C139.08 106.37 131.16 102.74 123 99 C119.37 97.02 115.74 95.04 112 93 C115.465 85.575 115.465 85.575 119 78 C123.14999294 79.38333098 126.73125486 80.72408943 130.6171875 82.6015625 C131.99559814 83.26406006 131.99559814 83.26406006 133.40185547 83.93994141 C134.54799316 84.49601074 135.69413086 85.05208008 136.875 85.625 C140.54625 87.39875 144.2175 89.1725 148 91 C148 74.5 148 58 148 41 C154.6 41 161.2 41 168 41 C168.33 60.47 168.66 79.94 169 100 C187.9536847 107.62334067 187.9536847 107.62334067 207 115 C206.49228528 120.96564796 204.61407872 125.63809899 202 131 C190.14502043 129.02417007 179.18624078 123.39459459 168 119 C168 146.06 168 173.12 168 201 C143 201 143 201 137.83984375 196.84765625 C136.28271484 194.09301758 136.28271484 194.09301758 134.9375 191.0625 C133.78484992 188.941458 132.6298167 186.82170969 131.47265625 184.703125 C130.91078613 183.59775391 130.34891602 182.49238281 129.77001953 181.35351562 C126.82775459 175.77903959 123.32979914 170.57857292 119.875 165.3125 C118.5325554 163.21650727 117.19267653 161.11886885 115.85546875 159.01953125 C110.77103947 151.06917149 105.62056076 143.16215209 100.46875 135.25537109 C92.94588985 123.70347912 85.50243699 112.10173562 78.07885742 100.48583984 C71.77057952 90.62363447 65.39436357 80.80651469 59 71 C59.0449485 71.95569382 59.0449485 71.95569382 59.09080505 72.93069458 C60.23226349 98.42063468 60.11907544 123.90640873 60.06866455 149.4161377 C60.05826702 155.25007762 60.05383245 161.08402215 60.04882812 166.91796875 C60.03823831 178.27865953 60.02071372 189.63932317 60 201 C53.4 201 46.8 201 40 201 C40 150.84 40 100.68 40 49 C38.35 48.34 36.7 47.68 35 47 C33.57078176 46.08121685 32.17450808 45.10950649 30.8125 44.09375 C30.03777344 43.51971436 29.26304687 42.94567871 28.46484375 42.35424805 C27.24474609 41.43639526 27.24474609 41.43639526 26 40.5 C24.73349609 39.5560437 24.73349609 39.5560437 23.44140625 38.59301758 C20.95543354 36.73586921 18.47627145 34.87005799 16 33 C15.34773438 32.50806152 14.69546875 32.01612305 14.0234375 31.50927734 C10.32047055 28.70860272 6.65499742 25.86316178 3 23 C1.92064445 22.17568757 0.84121673 21.35146965 -0.23828125 20.52734375 C-1.25277344 19.73457031 -2.26726562 18.94179687 -3.3125 18.125 C-4.21613281 17.42632813 -5.11976563 16.72765625 -6.05078125 16.0078125 C-8 14 -8 14 -8 10 C-6.25 7.421875 -6.25 7.421875 -4 4.75 C-3.2575 3.85796875 -2.515 2.9659375 -1.75 2.046875 C-1.1725 1.37140625 -0.595 0.6959375 0 0 Z " fill="#075985" transform="translate(372,1239)"/>
<path d="M0 0 C9.61125 -0.061875 19.2225 -0.12375 29.125 -0.1875 C32.12996582 -0.21481201 35.13493164 -0.24212402 38.23095703 -0.27026367 C40.65657145 -0.27903895 43.08219035 -0.28668041 45.5078125 -0.29296875 C46.73169678 -0.30831665 47.95558105 -0.32366455 49.21655273 -0.33947754 C65.4941189 -0.34432879 81.84782605 2.93646623 93.87109375 14.53515625 C102.5188184 24.54747599 104.46331583 37.6924997 103.82421875 50.53125 C102.66655181 61.10226931 99.16924642 71.09428952 91.125 78.40234375 C85.26421625 82.80870507 79.2694689 86.70455709 72 88 C79.32211985 100.06138965 86.66750395 112.10813141 94.0625 124.125 C94.72507812 125.20249512 95.38765625 126.27999023 96.0703125 127.39013672 C99.32992028 132.68540465 102.60269551 137.9717653 105.90234375 143.2421875 C106.51005615 144.21526855 107.11776855 145.18834961 107.74389648 146.19091797 C108.88928381 148.02309182 110.0383657 149.85296272 111.19165039 151.68017578 C111.69559326 152.48696777 112.19953613 153.29375977 112.71875 154.125 C113.16154297 154.82882812 113.60433594 155.53265625 114.06054688 156.2578125 C115 158 115 158 115 160 C111.12629549 160.26246434 107.25487619 160.42153564 103.375 160.5625 C102.28058594 160.63791016 101.18617188 160.71332031 100.05859375 160.79101562 C92.1668218 161.00624577 92.1668218 161.00624577 89.14257812 158.39819336 C87.51936302 156.01457024 86.26647155 153.59080105 85 151 C83.83736229 148.99331751 82.66492882 146.99228856 81.484375 144.99609375 C80.23733948 142.81117498 78.99261962 140.62493322 77.75 138.4375 C72.05290356 128.47726538 66.19877755 118.65550761 60 109 C59.34 113.62 58.68 118.24 58 123 C45.46753217 122.37337661 33.36104377 120.14073942 21 118 C21 131.86 21 145.72 21 160 C14.07 160 7.14 160 0 160 C-0.33 144.82 -0.66 129.64 -1 114 C-12.05396268 111.4106988 -12.05396268 111.4106988 -23.10864258 108.82446289 C-24.49563152 108.49897166 -25.88259608 108.17337651 -27.26953125 107.84765625 C-28.34769104 107.59622864 -28.34769104 107.59622864 -29.44763184 107.33972168 C-32.3462947 106.65783269 -35.17308674 105.94230442 -38 105 C-37.42521361 98.67734974 -36.0883233 94.26496991 -34 88 C-17.17 91.96 -17.17 91.96 0 96 C0 64.32 0 32.64 0 0 Z M21 18 C21 37.47 21 56.94 21 77 C48.72416213 78.79309114 48.72416213 78.79309114 73.82421875 68.36328125 C80.10633733 61.59441256 82.34010541 53.57040586 82.21875 44.46875 C81.56648428 37.10746547 79.12491776 29.57356737 73.421875 24.6328125 C62.73689881 17.0455815 49.1844596 17.59977244 36.6875 17.8125 C31.510625 17.874375 26.33375 17.93625 21 18 Z M21 94 C21 96.31 21 98.62 21 101 C25.28553369 101.71929322 29.5722267 102.43109738 33.86010742 103.13623047 C35.31617081 103.37672869 36.77190848 103.61920815 38.22729492 103.86376953 C40.32907238 104.21658589 42.43194959 104.56206875 44.53515625 104.90625 C45.797229 105.11572266 47.05930176 105.32519531 48.35961914 105.54101562 C51.94973058 105.99366196 55.38586804 106.08144523 59 106 C58.21331482 104.37258256 57.4204759 102.74813869 56.625 101.125 C56.18414063 100.22007813 55.74328125 99.31515625 55.2890625 98.3828125 C54.09497301 95.90465528 54.09497301 95.90465528 52 94 C48.79186374 93.72082705 48.79186374 93.72082705 45.0234375 93.8046875 C44.33819 93.8075174 43.6529425 93.81034729 42.94692993 93.81326294 C40.75610973 93.82446719 38.56569684 93.84957141 36.375 93.875 C34.8906309 93.88502952 33.4062554 93.89415542 31.921875 93.90234375 C28.28111739 93.92440706 24.64059844 93.95893824 21 94 Z " fill="#075985" transform="translate(658,1280)"/>
<path d="M0 0 C6.93 0 13.86 0 21 0 C21 36.63 21 73.26 21 111 C33.87 110.34 46.74 109.68 60 109 C54 126 54 126 52 127 C41.68774722 128.11969501 31.35793543 128.09937904 21 128 C21.01571045 129.29079468 21.01571045 129.29079468 21.03173828 130.60766602 C21.06634303 133.87869072 21.09114752 137.14951394 21.10986328 140.4206543 C21.11976486 141.82172768 21.13328969 143.22278133 21.15087891 144.6237793 C21.36314558 161.99843052 21.01085152 179.54423128 8.56396484 192.91796875 C-0.78035232 202.1791569 -12.71022203 203.28393404 -25.2734375 203.234375 C-30.0297962 202.93523294 -33.62758191 201.84101814 -38 200 C-38 194.06 -38 188.12 -38 182 C-36.02 182.33 -34.04 182.66 -32 183 C-29.16667212 183.21269295 -26.34067254 183.23003042 -23.5 183.25 C-22.76652344 183.270625 -22.03304687 183.29125 -21.27734375 183.3125 C-16.43543317 183.34714695 -13.20520651 182.64380587 -9 180 C-1.24421889 172.06795113 -0.98187435 162.78640539 -0.68359375 152.21875 C-0.66281265 151.51979614 -0.64203156 150.82084229 -0.62062073 150.10070801 C-0.55601465 147.90055741 -0.49666091 145.70030304 -0.4375 143.5 C-0.39422983 141.99478158 -0.35061307 140.48957307 -0.30664062 138.984375 C-0.20042681 135.32302256 -0.09891804 131.66155766 0 128 C-0.95890137 128.00523682 -1.91780273 128.01047363 -2.90576172 128.01586914 C-6.45783559 128.03394679 -10.00990537 128.04544215 -13.56201172 128.05493164 C-15.10043013 128.05996552 -16.63884375 128.06679308 -18.17724609 128.07543945 C-20.38640526 128.08754639 -22.59550126 128.09323769 -24.8046875 128.09765625 C-25.83914505 128.10539818 -25.83914505 128.10539818 -26.89450073 128.11329651 C-31.77225659 128.11387171 -31.77225659 128.11387171 -34 127 C-33.67 121.72 -33.34 116.44 -33 111 C-28.62495854 110.97299357 -24.25008438 110.95315725 -19.875 110.9375 C-18.6375 110.92912109 -17.4 110.92074219 -16.125 110.91210938 C-14.92617188 110.90888672 -13.72734375 110.90566406 -12.4921875 110.90234375 C-11.39245605 110.89710693 -10.29272461 110.89187012 -9.15966797 110.88647461 C-6 111 -6 111 0 112 C0 75.04 0 38.08 0 0 Z " fill="#075985" transform="translate(797,1280)"/>
<path d="M0 0 C19.14 0 38.28 0 58 0 C58 3.96 58 7.92 58 12 C52.06 13.65 46.12 15.3 40 17 C39.67 58.91 39.34 100.82 39 144 C41.64 144.33 44.28 144.66 47 145 C50.7104187 145.87758678 54.33331239 146.94582731 58 148 C58 151.96 58 155.92 58 160 C38.86 160 19.72 160 0 160 C0 156.04 0 152.08 0 148 C2.41509441 147.32713788 4.83180356 146.66153988 7.25 146 C7.93191406 145.80921875 8.61382813 145.6184375 9.31640625 145.421875 C12.70600912 144.50042956 15.45778976 144 19 144 C18.505 81.135 18.505 81.135 18 17 C12.06 15.35 6.12 13.7 0 12 C0 8.04 0 4.08 0 0 Z " fill="#075985" transform="translate(570,1280)"/>
<path d="M0 0 C0.54188259 4.59495931 1.07410551 9.19092469 1.59912109 13.7878418 C1.77710263 15.33596615 1.95727895 16.88384051 2.14013672 18.43139648 C5.09878362 43.51378011 6.34330073 68.55204026 6.26074219 93.79296875 C6.24934871 97.29809049 6.25614367 100.80290821 6.26762295 104.30801964 C6.33355145 128.09887689 5.15328696 151.72322578 2.4375 175.375 C2.31181641 176.52097656 2.18613281 177.66695312 2.05664062 178.84765625 C1.45782336 184.24641713 0.81259298 189.62914733 0 195 C-2.0836309 194.85848172 -4.16689938 194.71162064 -6.25 194.5625 C-7.99023438 194.44068359 -7.99023438 194.44068359 -9.765625 194.31640625 C-12.32567884 194.0659662 -14.53465371 193.6585193 -17 193 C-16.35258521 183.87240356 -15.48050891 174.78471241 -14.5 165.6875 C-13.42840413 155.46113865 -12.40555221 145.27738582 -12 135 C-11.93449951 133.34218506 -11.93449951 133.34218506 -11.86767578 131.65087891 C-11.71739298 127.72581602 -11.57483817 123.80053266 -11.4375 119.875 C-11.37151611 117.99760132 -11.37151611 117.99760132 -11.30419922 116.08227539 C-10.49677943 91.21080375 -11.42204458 66.41444005 -13.4375 41.625 C-13.49894196 40.8602536 -13.56038391 40.0955072 -13.62368774 39.30758667 C-14.38081481 29.98883909 -15.35263694 20.73038023 -16.61743164 11.46630859 C-16.96974942 8.27408915 -17.07107098 5.20773182 -17 2 C-14.91727106 1.66291092 -12.83378963 1.33046884 -10.75 1 C-9.58984375 0.814375 -8.4296875 0.62875 -7.234375 0.4375 C-4 0 -4 0 0 0 Z " fill="#914528" transform="translate(1482,622)"/>
<path d="M0 0 C4.91205543 2.75971421 9.45851848 5.66340133 14 9 C13.39080901 12.27861307 12.27884438 14.26030402 10.2265625 16.87109375 C9.65446045 17.60384521 9.0823584 18.33659668 8.49291992 19.09155273 C7.87650635 19.86571533 7.26009277 20.63987793 6.625 21.4375 C5.99376221 22.23937744 5.36252441 23.04125488 4.7121582 23.86743164 C0.0936362 29.70396133 -4.64855591 35.42288965 -9.5 41.06640625 C-11.82624575 43.79611025 -14.07426153 46.57308751 -16.3125 49.375 C-21.1783993 55.36312473 -26.46661579 60.92994601 -31.7578125 66.5390625 C-34.23113862 69.16511545 -36.64418904 71.82975929 -39 74.5625 C-39.99862332 75.70953334 -40.99852424 76.85545628 -42 78 C-42.52980469 78.6084375 -43.05960938 79.216875 -43.60546875 79.84375 C-45.1875 81.5625 -45.1875 81.5625 -48 84 C-52.05138356 83.86523464 -54.07571393 81.22976928 -56.75 78.4375 C-57.54921875 77.61121094 -58.3484375 76.78492188 -59.171875 75.93359375 C-59.77515625 75.29550781 -60.3784375 74.65742187 -61 74 C-59.66000502 70.993182 -58.20154709 69.00237391 -55.8125 66.75 C-52.72106467 63.74725339 -49.88425364 60.62016097 -47.07421875 57.35546875 C-44.98594819 54.98404286 -42.84540519 52.67171808 -40.6887207 50.36279297 C-35.75338623 45.07531988 -31.0005323 39.71187058 -26.47265625 34.06640625 C-24.56412082 31.69958111 -22.63537306 29.35813073 -20.68359375 27.02734375 C-13.37456918 18.28020092 -6.46028799 9.39272285 0 0 Z " fill="#A5431C" transform="translate(1340,1118)"/>
<path d="M0 0 C3.91209308 1.59415503 6.37218086 4.13893332 9.3125 7.125 C9.80105469 7.6207251 10.28960938 8.1164502 10.79296875 8.62719727 C14.02964776 11.93612358 17.12973748 15.3312114 20.1328125 18.8515625 C22.02817175 21.03241519 23.98013037 23.15451302 25.94580078 25.27197266 C31.55576545 31.31892808 36.82997744 37.5701344 42 44 C43.41636227 45.70858571 44.8330355 47.4169137 46.25 49.125 C50.25039412 54.01909919 54.1407592 58.9939591 58 64 C58.5765332 64.74266113 59.15306641 65.48532227 59.74707031 66.25048828 C60.28428711 66.95157715 60.82150391 67.65266602 61.375 68.375 C61.85710937 69.00148438 62.33921875 69.62796875 62.8359375 70.2734375 C64 72 64 72 65 75 C61.04 77.97 57.08 80.94 53 84 C48.64940475 81.82470237 47.3978722 80.22881112 44.5625 76.375 C43.67776938 75.19252029 42.79095 74.01160128 41.90234375 72.83203125 C41.43296387 72.2076416 40.96358398 71.58325195 40.47998047 70.93994141 C29.36209733 56.36674783 17.32944561 42.45745457 4.8359375 29.0546875 C1.45272689 25.42342071 -1.85644842 21.72703548 -5.16015625 18.0234375 C-6.91652919 16.00204825 -6.91652919 16.00204825 -8.80859375 14.4765625 C-10 13 -10 13 -9.97265625 11.109375 C-8.6364134 8.21149894 -6.7355849 6.45098273 -4.4375 4.25 C-3.61121094 3.45078125 -2.78492188 2.6515625 -1.93359375 1.828125 C-1.29550781 1.22484375 -0.65742187 0.6215625 0 0 Z " fill="#684C43" transform="translate(1289,237)"/>
<path d="M0 0 C3.37591285 1.12530428 4.28446799 2.16053617 6.5625 4.8125 C7.46162109 5.84310547 7.46162109 5.84310547 8.37890625 6.89453125 C9.89648749 8.86555845 10.97902958 10.73964261 12 13 C4.25925332 20.32960812 -3.75340768 27.08283571 -12.19238281 33.59082031 C-14.60686876 35.47310191 -16.98173522 37.40223556 -19.35888672 39.33129883 C-31.6649453 49.29937058 -44.36379516 58.82600233 -57.65234375 67.44921875 C-60.02434918 68.95455182 -60.02434918 68.95455182 -62.12890625 70.76953125 C-63.05509766 71.37861328 -63.05509766 71.37861328 -64 72 C-68.08288689 70.6390377 -68.88685817 68.52046678 -71.1875 64.9375 C-71.90292969 63.83277344 -72.61835937 62.72804688 -73.35546875 61.58984375 C-73.89816406 60.73519531 -74.44085937 59.88054687 -75 59 C-70.94764992 54.6019137 -66.47802007 51.47031904 -61.5 48.1875 C-43.55959101 36.12589871 -26.21323096 22.81527819 -10.0078125 8.4921875 C-9.36513428 7.92725586 -8.72245605 7.36232422 -8.06030273 6.78027344 C-6.84031686 5.70199105 -5.62840026 4.61448731 -4.42602539 3.51660156 C-2.79296875 2.0703125 -2.79296875 2.0703125 0 0 Z " fill="#A4431C" transform="translate(1244,1223)"/>
<path d="M0 0 C2.82041648 2.65131228 4.92114376 5.18548628 6.8125 8.5625 C7.25207031 9.32691406 7.69164062 10.09132812 8.14453125 10.87890625 C9 13 9 13 8 16 C6.18432617 17.40356445 6.18432617 17.40356445 3.79296875 18.86328125 C2.90665771 19.41290527 2.02034668 19.9625293 1.10717773 20.52880859 C0.14368408 21.11742676 -0.81980957 21.70604492 -1.8125 22.3125 C-20.32127175 33.8663968 -37.73987312 46.67011354 -55 60 C-56.40324508 61.07864655 -57.80686039 62.15681173 -59.2109375 63.234375 C-62.14365725 65.48566306 -65.07316175 67.74106733 -68 70 C-70.85632313 67.17287267 -73.67472018 64.34560599 -76.3125 61.3125 C-76.82425781 60.73113281 -77.33601563 60.14976562 -77.86328125 59.55078125 C-79 58 -79 58 -79 56 C-76.97415039 54.25054066 -74.94072472 52.61698451 -72.8125 51 C-71.85682129 50.26305908 -71.85682129 50.26305908 -70.88183594 49.51123047 C-69.56006352 48.49289614 -68.23630665 47.47713274 -66.91064453 46.46386719 C-65.2021017 45.15484306 -63.50311923 43.83489576 -61.80859375 42.5078125 C-42.03675341 27.10446306 -21.3335244 13.13726571 0 0 Z " fill="#255073" transform="translate(441,132)"/>
<path d="M0 0 C3.63303084 1.69586126 5.94549046 3.73800488 8.75 6.625 C9.54921875 7.44226563 10.3484375 8.25953125 11.171875 9.1015625 C11.77515625 9.72804687 12.3784375 10.35453125 13 11 C7.06545729 18.19847194 0.42469625 24.6296626 -6.21289062 31.17382812 C-10.80658923 35.7279543 -15.27041817 40.31398464 -19.4777832 45.22827148 C-21.70733757 47.82327968 -24.04311032 50.30904486 -26.375 52.8125 C-30.67010058 57.46239079 -34.74564237 62.24538501 -38.71875 67.17578125 C-41.30163853 70.37343263 -43.92713404 73.53309635 -46.5625 76.6875 C-47.004729 77.21730469 -47.44695801 77.74710937 -47.90258789 78.29296875 C-48.93461421 79.529017 -49.96723791 80.76456644 -51 82 C-54.52238047 80.43632643 -57.27123994 78.30504111 -60.25 75.875 C-61.14203125 75.15054688 -62.0340625 74.42609375 -62.953125 73.6796875 C-63.62859375 73.12539063 -64.3040625 72.57109375 -65 72 C-55.70734487 59.19120509 -45.01492627 47.38274353 -34.40625 35.66015625 C-32.8363663 33.92461924 -31.27350668 32.18269501 -29.71875 30.43359375 C-20.23445389 19.88381501 -10.07336195 9.98218126 0 0 Z " fill="#215275" transform="translate(325,221)"/>
<path d="M0 0 C3.17284602 0.62067805 5.3282698 1.69274372 7.984375 3.51953125 C8.74661377 4.04111816 9.50885254 4.56270508 10.29418945 5.10009766 C11.10460693 5.66519043 11.91502441 6.2302832 12.75 6.8125 C13.59328857 7.39563965 14.43657715 7.9787793 15.30541992 8.57958984 C37.17296649 23.79662281 57.84021578 40.60666792 78 58 C76.68302856 61.79793279 75.08343619 64.35328268 72.375 67.3125 C71.74335937 68.00988281 71.11171875 68.70726562 70.4609375 69.42578125 C69.97882813 69.94527344 69.49671875 70.46476562 69 71 C65.90087148 70.41445037 64.15086378 69.55563139 61.8203125 67.4453125 C61.22911621 66.91897217 60.63791992 66.39263184 60.02880859 65.8503418 C59.40055176 65.280979 58.77229492 64.71161621 58.125 64.125 C51.60305008 58.35060353 44.93876266 52.86526129 38.03027344 47.56201172 C35.7554595 45.81186025 33.49147596 44.04809897 31.2265625 42.28515625 C21.0164492 34.38329862 10.64745011 26.85958678 -0.15625 19.78417969 C-1.03796875 19.19926758 -1.9196875 18.61435547 -2.828125 18.01171875 C-3.6109082 17.50084717 -4.39369141 16.98997559 -5.20019531 16.46362305 C-7 15 -7 15 -8 12 C-6.34765625 9.08203125 -6.34765625 9.08203125 -4.0625 5.8125 C-3.67642578 5.25369141 -3.29035156 4.69488281 -2.89257812 4.11914062 C-1.93757247 2.73968802 -0.96995907 1.36897944 0 0 Z " fill="#5B4C4D" transform="translate(1177,145)"/>
<path d="M0 0 C2.71460104 1.16311198 3.20835769 2.49413058 4.49267578 5.12890625 C4.94892334 6.03979004 5.4051709 6.95067383 5.87524414 7.88916016 C6.36001221 8.8847998 6.84478027 9.88043945 7.34423828 10.90625 C19.53602383 35.08539433 33.65874739 58.50245967 48.96923828 80.84375 C46.22029642 83.65409435 43.539732 86.35812096 40.34423828 88.65625 C39.77447266 89.07519531 39.20470703 89.49414062 38.61767578 89.92578125 C36.96923828 90.84375 36.96923828 90.84375 33.96923828 90.84375 C32.28166651 88.49820801 30.80436432 86.2013875 29.34423828 83.71875 C28.4480542 82.23770518 27.55090091 80.75724644 26.65283203 79.27734375 C26.20278809 78.52952637 25.75274414 77.78170898 25.2890625 77.01123047 C23.39053895 73.8933814 21.40071005 70.83852649 19.40673828 67.78125 C10.7432475 54.35766179 2.95177666 40.5252153 -4.61914062 26.45849609 C-5.92718113 24.03561235 -7.24784167 21.62018047 -8.57373047 19.20703125 C-9.30966051 17.85690869 -10.04535587 16.50665816 -10.78076172 15.15625 C-11.11599854 14.55103516 -11.45123535 13.94582031 -11.79663086 13.32226562 C-13.27349945 10.58741222 -14.03076172 9.0097699 -14.03076172 5.84375 C-12.12194737 4.80830826 -10.20336968 3.79084915 -8.28076172 2.78125 C-6.67974609 1.92853516 -6.67974609 1.92853516 -5.04638672 1.05859375 C-2.03076172 -0.15625 -2.03076172 -0.15625 0 0 Z " fill="#524D4F" transform="translate(197.03076171875,1018.15625)"/>
<path d="M0 0 C3.94949704 0.62816498 7.19892028 1.8645529 10.8125 3.5625 C11.78832031 4.01753906 12.76414062 4.47257813 13.76953125 4.94140625 C14.50558594 5.29074219 15.24164062 5.64007812 16 6 C13.9531941 12.4666162 11.07235175 18.40329467 8.125 24.5 C7.83588745 25.09846741 7.5467749 25.69693481 7.24890137 26.3135376 C-1.09239013 43.54210643 -10.43544333 60.15270104 -20.0625 76.6875 C-20.62306091 77.65390411 -20.62306091 77.65390411 -21.19494629 78.63983154 C-22.26152586 80.47520243 -23.33469409 82.30654183 -24.41015625 84.13671875 C-25.03027588 85.19592529 -25.65039551 86.25513184 -26.28930664 87.34643555 C-28 90 -28 90 -31 93 C-35.62 90.03 -40.24 87.06 -45 84 C-41.77420263 77.96196902 -38.44076558 72.03042079 -34.875 66.1875 C-28.88805889 56.32627762 -23.45185589 46.16364904 -18 36 C-17.31623291 34.72938721 -17.31623291 34.72938721 -16.61865234 33.43310547 C-10.71832087 22.44740543 -5.19616208 11.33576141 0 0 Z " fill="#9D441C" transform="translate(1412,996)"/>
<path d="M0 0 C2.75486081 1.39389372 4.0776475 3.23640407 5.9609375 5.6796875 C6.74726563 6.67484375 7.53359375 7.67 8.34375 8.6953125 C8.7655957 9.23091797 9.18744141 9.76652344 9.62207031 10.31835938 C11.96202724 13.24373223 14.39631396 16.08731999 16.8359375 18.9296875 C17.34374756 19.52144775 17.85155762 20.11320801 18.37475586 20.72290039 C22.58197974 25.5997125 26.89776623 30.36774683 31.27734375 35.08984375 C33.00688114 36.96036235 34.72407775 38.84240556 36.42578125 40.73828125 C45.23214958 50.52162726 54.60870613 59.73451128 63.9609375 68.9921875 C62.26507624 72.62521834 60.22293262 74.93767796 57.3359375 77.7421875 C56.51867187 78.54140625 55.70140625 79.340625 54.859375 80.1640625 C54.23289062 80.76734375 53.60640625 81.370625 52.9609375 81.9921875 C46.79843579 76.93263354 41.18398345 71.36800387 35.56347656 65.72509766 C33.96790028 64.12417361 32.3670641 62.52865066 30.765625 60.93359375 C25.82469631 55.99588 20.9738933 51.02224995 16.43261719 45.70898438 C14.22226034 43.13047917 11.90074898 40.66480793 9.5859375 38.1796875 C4.46956732 32.63937691 -0.33374029 26.88667295 -5.0390625 20.9921875 C-5.80992187 20.03183594 -6.58078125 19.07148437 -7.375 18.08203125 C-9.26706152 15.72193346 -11.15507034 13.35872806 -13.0390625 10.9921875 C-11.5719452 7.43482243 -9.6684206 5.55023583 -6.6640625 3.1796875 C-5.89320313 2.55449219 -5.12234375 1.92929688 -4.328125 1.28515625 C-2.0390625 -0.0078125 -2.0390625 -0.0078125 0 0 Z " fill="#614D48" transform="translate(274.0390625,1138.0078125)"/>
<path d="M0 0 C1.65063477 2.19287109 1.65063477 2.19287109 3.44140625 5.2734375 C4.10237305 6.39911133 4.76333984 7.52478516 5.44433594 8.68457031 C6.15085145 9.91444893 6.85689587 11.14459828 7.5625 12.375 C8.28997151 13.62639458 9.01816541 14.87736948 9.74707031 16.12792969 C11.8481599 19.74247275 13.92633522 23.36965347 16 27 C16.5057959 27.88268555 17.0115918 28.76537109 17.53271484 29.67480469 C26.3074685 45.04762892 34.60643343 60.75200403 42.3125 76.6875 C43.14201172 78.39486328 43.14201172 78.39486328 43.98828125 80.13671875 C45 83 45 83 45 85.21875 C43.47846787 87.9289791 41.49555752 88.58141783 38.6875 89.8125 C37.72199219 90.25207031 36.75648437 90.69164062 35.76171875 91.14453125 C32.75364459 92.07631094 31.82729259 92.2724699 29 91 C27.45117188 88.57348633 27.45117188 88.57348633 25.96875 85.33203125 C25.41203613 84.14013184 24.85532227 82.94823242 24.28173828 81.72021484 C23.99171936 81.08347839 23.70170044 80.44674194 23.40289307 79.79071045 C21.87229361 76.43721495 20.28938374 73.10851661 18.7109375 69.77734375 C18.39478485 69.10761536 18.0786322 68.43788696 17.75289917 67.74786377 C10.25712411 51.93256487 1.28812053 36.89211983 -7.74560547 21.91943359 C-8.7261792 20.28675537 -8.7261792 20.28675537 -9.7265625 18.62109375 C-10.31002441 17.6561499 -10.89348633 16.69120605 -11.49462891 15.69702148 C-12.89978442 13.17954614 -14.00033347 10.7004497 -15 8 C-13.06829319 6.65828736 -11.12943124 5.32687117 -9.1875 4 C-8.10855469 3.2575 -7.02960938 2.515 -5.91796875 1.75 C-3 0 -3 0 0 0 Z " fill="#77493A" transform="translate(1382,351)"/>
<path d="M0 0 C7.10230052 1.95389551 13.77298265 4.44804436 20.5 7.4375 C21.48629395 7.87215576 22.47258789 8.30681152 23.48876953 8.75463867 C26.66351789 10.16024294 29.83246743 11.57821527 33 13 C34.05413086 13.47147461 35.10826172 13.94294922 36.19433594 14.42871094 C54.12248165 22.47752491 72.19283727 30.76620519 89 41 C87.62712658 44.69876091 85.93644547 47.9514476 83.875 51.3125 C83.33617187 52.19550781 82.79734375 53.07851562 82.2421875 53.98828125 C81.83226562 54.65214844 81.42234375 55.31601563 81 56 C75.18818375 54.38719713 70.27910425 51.50174402 65.0625 48.5625 C45.57065927 37.78240484 25.33621259 28.84195864 4.83203125 20.1953125 C1.54908515 18.80968283 -1.72671634 17.4082732 -5 16 C-4.39282787 10.23186477 -2.22386401 5.29140832 0 0 Z " fill="#4C4D56" transform="translate(1048,78)"/>
<path d="M0 0 C5.00099548 2.65848126 9.7045025 5.25876024 14 9 C13.08816238 13.35517775 10.82651337 16.54491913 8.375 20.1875 C-3.72630571 38.55681702 -14.65641581 57.59569724 -25 77 C-25.83963168 78.56782192 -26.67946575 80.13553548 -27.51953125 81.703125 C-29.35410497 85.13134135 -31.18025412 88.5638916 -33 92 C-36.89132055 90.79312667 -40.34521158 89.40730242 -43.875 87.375 C-45.04675781 86.70597656 -45.04675781 86.70597656 -46.2421875 86.0234375 C-46.82226562 85.68570313 -47.40234375 85.34796875 -48 85 C-47.40748425 81.3231333 -46.38887936 78.44268817 -44.6640625 75.1484375 C-44.18267822 74.22466309 -43.70129395 73.30088867 -43.20532227 72.34912109 C-42.68381592 71.36766113 -42.16230957 70.38620117 -41.625 69.375 C-41.08480225 68.35100098 -40.54460449 67.32700195 -39.98803711 66.27197266 C-28.74335413 45.10299885 -16.27877972 24.57707218 -2.828125 4.73828125 C-1.03847613 2.18085871 -1.03847613 2.18085871 0 0 Z " fill="#254F6E" transform="translate(231,331)"/>
<path d="M0 0 C1.65 5.28 3.3 10.56 5 16 C2.69128906 16.88300781 0.38257813 17.76601562 -1.99609375 18.67578125 C-26.17512068 27.9560292 -49.88993729 37.80241522 -73.12182617 49.29345703 C-74.60453003 50.02024658 -74.60453003 50.02024658 -76.1171875 50.76171875 C-77.42598877 51.410802 -77.42598877 51.410802 -78.76123047 52.07299805 C-81 53 -81 53 -84 53 C-85.03544174 51.09118566 -86.05290085 49.17260796 -87.0625 47.25 C-87.63097656 46.18265625 -88.19945312 45.1153125 -88.78515625 44.015625 C-90 41 -90 41 -89.91699219 39.00097656 C-88.52944745 35.97320323 -86.51721742 35.37932861 -83.54296875 33.96875 C-82.38216797 33.4116333 -81.22136719 32.8545166 -80.02539062 32.28051758 C-78.74649103 31.68615613 -77.46718258 31.09267376 -76.1875 30.5 C-74.86758716 29.8777302 -73.54792909 29.25491973 -72.22851562 28.6315918 C-53.76196975 19.95600804 -34.99695384 12.0273165 -15.9375 4.75 C-15.30368408 4.50690094 -14.66986816 4.26380188 -14.0168457 4.01333618 C-12.23101815 3.33086157 -10.4417533 2.65740181 -8.65234375 1.984375 C-7.63132568 1.59991211 -6.61030762 1.21544922 -5.55834961 0.81933594 C-3 0 -3 0 0 0 Z " fill="#264F6C" transform="translate(574,70)"/>
<path d="M0 0 C4.067476 0.63200806 7.57337576 1.46992768 11.375 3.0625 C12.68597656 3.60583984 12.68597656 3.60583984 14.0234375 4.16015625 C15.00183594 4.57587891 15.00183594 4.57587891 16 5 C15.3599778 8.66686297 14.35858857 11.97034974 13.03125 15.4453125 C12.62962646 16.5077417 12.22800293 17.5701709 11.81420898 18.66479492 C11.38052002 19.8066626 10.94683105 20.94853027 10.5 22.125 C1.41384167 46.41949736 -6.18788967 70.98818939 -13 96 C-19.19518473 95.58411954 -24.26689311 94.39748106 -30 92 C-22.47257769 60.51245105 -12.35847831 29.91296761 0 0 Z " fill="#274F6C" transform="translate(162,460)"/>
<path d="M0 0 C9.20211888 24.49295664 16.70961024 49.32259738 23.0625 74.6875 C23.26262695 75.48483551 23.46275391 76.28217102 23.66894531 77.10366821 C24.23363651 79.36345727 24.79217552 81.62464985 25.34765625 83.88671875 C25.51592422 84.56342621 25.6841922 85.24013367 25.8575592 85.93734741 C26.53024074 88.71173674 27 91.13162762 27 94 C25.10614563 94.50744423 23.20981334 95.00564574 21.3125 95.5 C20.25675781 95.7784375 19.20101563 96.056875 18.11328125 96.34375 C15.27356794 96.94233449 12.88199527 97.05127345 10 97 C9.71390869 95.81374023 9.42781738 94.62748047 9.13305664 93.40527344 C3.54320014 70.30247325 -2.27372727 47.49305434 -10 25 C-10.92257172 22.26396912 -11.84009422 19.52632106 -12.75463867 16.78759766 C-13.27327971 15.23872769 -13.79648963 13.69137591 -14.32543945 12.14599609 C-16 7.21571384 -16 7.21571384 -16 5 C-13.70967689 4.16280617 -11.41789043 3.3301071 -9.125 2.5 C-8.47402344 2.26152344 -7.82304688 2.02304687 -7.15234375 1.77734375 C-2.2265625 0 -2.2265625 0 0 0 Z " fill="#824431" transform="translate(1446,481)"/>
<path d="M0 0 C0.24532471 0.88743896 0.49064941 1.77487793 0.7434082 2.68920898 C8.19686868 29.52407604 15.75505458 56.56208442 26.71533203 82.21850586 C28.21975617 85.77148209 29 88.0775671 29 92 C26.90049414 92.86555948 24.7952093 93.71711277 22.6875 94.5625 C21.51574219 95.03816406 20.34398437 95.51382813 19.13671875 96.00390625 C16 97 16 97 13 96 C11.93188477 94.07104492 11.93188477 94.07104492 10.94140625 91.48046875 C10.56153564 90.49618896 10.18166504 89.51190918 9.7902832 88.49780273 C9.38511475 87.40540283 8.97994629 86.31300293 8.5625 85.1875 C8.13219482 84.04547119 7.70188965 82.90344238 7.25854492 81.72680664 C-0.34040262 61.28437647 -7.30887136 40.54863091 -13.25 19.5625 C-13.68155396 18.04547485 -13.68155396 18.04547485 -14.12182617 16.49780273 C-15.30460023 12.18024547 -16.14150465 8.50373428 -16 4 C-13.70922959 3.33011414 -11.41748541 2.66396838 -9.125 2 C-8.47402344 1.80921875 -7.82304687 1.6184375 -7.15234375 1.421875 C-2.2265625 0 -2.2265625 0 0 0 Z " fill="#454F58" transform="translate(149,884)"/>
<path d="M0 0 C2.13264975 0.22912766 4.25739648 0.53375263 6.375 0.875 C8.11910156 1.14957031 8.11910156 1.14957031 9.8984375 1.4296875 C13 2 13 2 16 3 C15.07829958 11.21995887 13.19083702 19.11250061 11.1875 27.125 C10.99458374 27.90012939 10.80166748 28.67525879 10.60290527 29.47387695 C7.39523241 42.27976848 3.72906352 54.91361431 -0.25 67.5 C-0.49980621 68.29456604 -0.74961243 69.08913208 -1.00698853 69.90777588 C-3.92294276 79.14153105 -7.06946422 88.14015045 -11 97 C-14.78239671 96.34309381 -18.21841526 95.279869 -21.8125 93.9375 C-22.78832031 93.57527344 -23.76414062 93.21304688 -24.76953125 92.83984375 C-25.87361328 92.42412109 -25.87361328 92.42412109 -27 92 C-26.68885254 91.07292236 -26.37770508 90.14584473 -26.05712891 89.19067383 C-20.08283931 71.33292816 -14.37591965 53.44202357 -9.5 35.25 C-9.29916809 34.50319977 -9.09833618 33.75639954 -8.89141846 32.98696899 C-6.5147182 24.11458353 -4.29183406 15.21714286 -2.28088379 6.25421143 C-1.10629983 1.10629983 -1.10629983 1.10629983 0 0 Z " fill="#9D4423" transform="translate(1457,861)"/>
<path d="M0 0 C10.22450411 1.37753293 20.32507429 3.09683024 30.4375 5.125 C31.1862439 5.27451111 31.93498779 5.42402222 32.7064209 5.57806396 C43.79634208 7.80559182 54.79712322 10.29983081 65.75 13.125 C66.9661499 13.43711426 68.1822998 13.74922852 69.43530273 14.07080078 C78.08758313 16.35514089 86.54369346 19.08766823 95 22 C93.96997405 27.46686898 92.93004549 32.7613051 91 38 C83.09320102 36.574239 75.42515678 34.51994417 67.6875 32.375 C55.76307376 29.11652038 43.7717223 26.28796673 31.6875 23.6875 C30.92738617 23.52296326 30.16727234 23.35842651 29.38412476 23.18890381 C18.62847398 20.86903187 7.84454667 18.86184768 -3 17 C-2.01 11.39 -1.02 5.78 0 0 Z " fill="#414F5E" transform="translate(908,40)"/>
<path d="M0 0 C0.33848652 1.89492006 0.67056911 3.79098466 1 5.6875 C1.185625 6.74324219 1.37125 7.79898438 1.5625 8.88671875 C1.95160453 11.65561438 2.03305658 14.21291723 2 17 C1.01233643 17.13986328 0.02467285 17.27972656 -0.99291992 17.42382812 C-24.11373773 20.72449341 -46.90421538 24.82321257 -69.67431641 30.01660156 C-74.47021306 31.11016109 -79.27194316 32.17704463 -84.07421875 33.2421875 C-84.86641312 33.41799347 -85.65860748 33.59379944 -86.47480774 33.77493286 C-88.31648662 34.18352247 -90.15823515 34.59179811 -92 35 C-96 21.375 -96 21.375 -96 18 C-19.70667834 -0.71086214 -19.70667834 -0.71086214 0 0 Z " fill="#2C4F6B" transform="translate(715,37)"/>
<path d="M0 0 C2.27130656 0.30904171 4.54203305 0.62234907 6.8125 0.9375 C8.07707031 1.11152344 9.34164062 1.28554688 10.64453125 1.46484375 C14 2 14 2 17 3 C16.83395264 4.13912842 16.66790527 5.27825684 16.49682617 6.4519043 C12.75642927 32.26476634 9.77518663 57.97907426 8 84 C7.81061317 86.67983542 7.61814219 89.35943772 7.42578125 92.0390625 C7.34368408 93.18842285 7.26158691 94.3377832 7.17700195 95.52197266 C7.11859131 96.33972168 7.06018066 97.1574707 7 98 C4.54159395 98.02691685 2.08348118 98.04679802 -0.375 98.0625 C-1.07367188 98.07087891 -1.77234375 98.07925781 -2.4921875 98.08789062 C-7.7734375 98.11328125 -7.7734375 98.11328125 -10 97 C-9.3024344 65.64037971 -8.4297537 30.53285366 0 0 Z " fill="#314E6A" transform="translate(122,599)"/>
<path d="M0 0 C5.61 0 11.22 0 17 0 C17.15855469 2.4234375 17.31710938 4.846875 17.48046875 7.34375 C19.07902179 30.96197928 21.54339752 54.3699829 24.70733643 77.82745361 C25.09443506 80.70102522 25.47683624 83.57521429 25.85910034 86.44943237 C26.23852255 89.29973855 26.61939555 92.14985145 27 95 C21.39 95.99 15.78 96.98 10 98 C4.7240492 65.69783481 -0.45883931 32.82465802 0 0 Z " fill="#3B4E62" transform="translate(112,744)"/>
<path d="M0 0 C1.29736084 -0.00637985 2.59472168 -0.0127597 3.93139648 -0.01933289 C5.36311811 -0.02086516 6.79484024 -0.02197719 8.2265625 -0.02270508 C9.70841503 -0.02592421 11.19026725 -0.02928876 12.67211914 -0.03279114 C15.79948659 -0.03879838 18.9268264 -0.04063032 22.05419922 -0.04003906 C25.20953249 -0.03995898 28.36471694 -0.04670165 31.52001953 -0.06054688 C50.73701427 -0.14382411 69.70661286 0.24052012 88.8515625 2.14526367 C88.87877426 4.04101618 88.89805386 5.93688346 88.9140625 7.83276367 C88.92566406 8.88850586 88.93726563 9.94424805 88.94921875 11.03198242 C88.86021675 13.8693663 88.50096088 16.38915558 87.8515625 19.14526367 C87.26831207 19.12020752 86.68506165 19.09515137 86.08413696 19.06933594 C54.65493944 17.72818654 23.30982503 16.84180776 -8.1484375 17.14526367 C-8.1484375 11.86526367 -8.1484375 6.58526367 -8.1484375 1.14526367 C-5.37249811 -0.24270602 -3.1065455 0.01036081 0 0 Z " fill="#364E63" transform="translate(771.1484375,31.854736328125)"/>
<path d="M0 0 C3.04958378 0.58822568 4.86554906 1.44070037 7.22265625 3.44921875 C8.13893799 4.21600952 8.13893799 4.21600952 9.07373047 4.99829102 C9.73002441 5.55572998 10.38631836 6.11316895 11.0625 6.6875 C23.97757246 17.40232623 37.49491401 27.21627985 51.56591797 36.35766602 C53.39234864 37.54898663 55.19863277 38.77111029 57 40 C57 40.33 57 40.66 57 41 C51.39 41 45.78 41 40 41 C40 43.64 40 46.28 40 49 C36.54296116 47.73603903 33.76006868 46.29198368 30.8125 44.09375 C30.03777344 43.51971436 29.26304687 42.94567871 28.46484375 42.35424805 C27.24474609 41.43639526 27.24474609 41.43639526 26 40.5 C24.73349609 39.5560437 24.73349609 39.5560437 23.44140625 38.59301758 C20.95543354 36.73586921 18.47627145 34.87005799 16 33 C15.34773438 32.50806152 14.69546875 32.01612305 14.0234375 31.50927734 C10.32047055 28.70860272 6.65499742 25.86316178 3 23 C1.92064445 22.17568757 0.84121673 21.35146965 -0.23828125 20.52734375 C-1.25277344 19.73457031 -2.26726562 18.94179687 -3.3125 18.125 C-4.21613281 17.42632813 -5.11976563 16.72765625 -6.05078125 16.0078125 C-8 14 -8 14 -8 10 C-6.25 7.421875 -6.25 7.421875 -4 4.75 C-3.2575 3.85796875 -2.515 2.9659375 -1.75 2.046875 C-1.1725 1.37140625 -0.595 0.6959375 0 0 Z " fill="#6C4C43" transform="translate(372,1239)"/>
<path d="M0 0 C0 6.27 0 12.54 0 19 C-8.46106309 23.6535847 -16.95386707 28.01330372 -25.75 32 C-26.61915039 32.39759521 -27.48830078 32.79519043 -28.38378906 33.20483398 C-29.20073242 33.57036377 -30.01767578 33.93589355 -30.859375 34.3125 C-31.94943848 34.80169922 -31.94943848 34.80169922 -33.06152344 35.30078125 C-35 36 -35 36 -38 36 C-39.55129505 33.8940354 -40.87648775 31.87244957 -42.1875 29.625 C-42.55552734 29.02171875 -42.92355469 28.4184375 -43.30273438 27.796875 C-46 23.29309195 -46 23.29309195 -46 21 C-45.06317383 20.57702637 -44.12634766 20.15405273 -43.16113281 19.71826172 C-39.62634963 18.12154799 -36.09300972 16.52166123 -32.56005859 14.92089844 C-31.04188503 14.2335326 -29.52334099 13.54698432 -28.00439453 12.86132812 C-19.62177077 9.07669799 -11.3003918 5.23641152 -3.11621094 1.03564453 C-1 0 -1 0 0 0 Z " fill="#9C441C" transform="translate(1110,1316)"/>
<path d="M0 0 C1.6875 1 1.6875 1 2.9375 3.5 C3.84765428 7.74738666 3.83007663 11.68180711 3.6875 16 C-3.03158785 18.6582799 -9.85606416 20.68213745 -16.8125 22.625 C-17.90175781 22.93695312 -18.99101563 23.24890625 -20.11328125 23.5703125 C-21.17933594 23.869375 -22.24539063 24.1684375 -23.34375 24.4765625 C-24.29830078 24.74549316 -25.25285156 25.01442383 -26.23632812 25.29150391 C-29.87674236 26.12995487 -33.60562611 26.53664076 -37.3125 27 C-39.2925 22.05 -41.2725 17.1 -43.3125 12 C-39.65717108 10.17233554 -36.53567859 9.15413184 -32.60546875 8.125 C-31.96184891 7.95500488 -31.31822906 7.78500977 -30.65510559 7.60986328 C-28.60446538 7.06910467 -26.55231604 6.53435934 -24.5 6 C-22.4587483 5.46436782 -20.41782741 4.92749479 -18.37702942 4.39013672 C-16.51776731 3.90124212 -14.65770895 3.41537859 -12.79760742 2.9296875 C-10.36056996 2.27958322 -7.93276404 1.59431525 -5.51293945 0.8828125 C-2.3125 0 -2.3125 0 0 0 Z " fill="#9D4425" transform="translate(998.3125,1362)"/>
<path d="M0 0 C3.94727522 1.49245086 7.89431558 2.98549692 11.84082031 4.47998047 C13.17890929 4.98650143 14.51712205 5.49269554 15.85546875 5.99853516 C23.60006864 8.92594754 31.32919887 11.88281806 39 15 C38.49228528 20.96564796 36.61407872 25.63809899 34 31 C29.44884328 30.39418377 25.54867316 29.19603012 21.2890625 27.49609375 C20.36956314 27.13198143 20.36956314 27.13198143 19.43148804 26.76051331 C17.49373226 25.99171749 15.55937111 25.21476724 13.625 24.4375 C12.30360203 23.91156482 10.98198933 23.3861688 9.66015625 22.86132812 C6.43714261 21.58142371 3.21885812 20.29051974 0 19 C0 12.73 0 6.46 0 0 Z " fill="#804437" transform="translate(540,1339)"/>
<path d="M0 0 C8.46008235 0.6805316 16.79868795 1.78269741 25.1875 3.0625 C27.0447168 3.3419043 27.0447168 3.3419043 28.93945312 3.62695312 C31.96007638 4.08179601 34.98023024 4.53953071 38 5 C39.26237731 8.78713193 38.67558873 11.25651933 38.0625 15.1875 C37.86785156 16.45980469 37.67320312 17.73210937 37.47265625 19.04296875 C37.23869141 20.50669922 37.23869141 20.50669922 37 22 C24.50696284 21.51199074 12.29016838 19.15353399 0 17 C0 11.39 0 5.78 0 0 Z " fill="#894530" transform="translate(679,1381)"/>
<path d="M0 0 C16.83 3.96 16.83 3.96 34 8 C34 13.94 34 19.88 34 26 C29.72840448 25.06587189 25.45773806 24.12779708 21.1875 23.1875 C19.99189453 22.92646484 18.79628906 22.66542969 17.56445312 22.39648438 C10.31414158 20.79627938 3.14025412 19.03706981 -4 17 C-3.42521361 10.67734974 -2.0883233 6.26496991 0 0 Z " fill="#864531" transform="translate(624,1368)"/>
<path d="M0 0 C4.14999294 1.38333098 7.73125486 2.72408943 11.6171875 4.6015625 C12.63554687 5.09140625 13.65390625 5.58125 14.703125 6.0859375 C15.74984375 6.59382813 16.7965625 7.10171875 17.875 7.625 C18.94492187 8.140625 20.01484375 8.65625 21.1171875 9.1875 C23.74633995 10.45512708 26.37338059 11.72713257 29 13 C29 19.27 29 25.54 29 32 C16.50877216 27.08891897 4.77798654 21.42553163 -7 15 C-3.535 7.575 -3.535 7.575 0 0 Z " fill="#774439" transform="translate(491,1317)"/>
<path d="M0 0 C-0.9495346 2.81575825 -1.90908625 5.62736489 -2.875 8.4375 C-3.14441406 9.23994141 -3.41382813 10.04238281 -3.69140625 10.86914062 C-3.95566406 11.63291016 -4.21992187 12.39667969 -4.4921875 13.18359375 C-4.73308105 13.89056396 -4.97397461 14.59753418 -5.22216797 15.32592773 C-6 17 -6 17 -8 18 C-18.31516747 19.12001148 -28.63889859 19.09169116 -39 19 C-39 13.39 -39 7.78 -39 2 C-34.24950592 1.71379487 -29.49897515 1.42849862 -24.74829102 1.14550781 C-23.13335024 1.04903546 -21.51844085 0.95203616 -19.90356445 0.85449219 C-17.57771801 0.71409616 -15.25176399 0.57561732 -12.92578125 0.4375 C-11.84892815 0.37187866 -11.84892815 0.37187866 -10.75032043 0.30493164 C-7.16150075 0.09370741 -3.5951609 -0.04903885 0 0 Z " fill="#934527" transform="translate(857,1389)"/>
<path d="M0 0 C4.37504146 -0.02700643 8.74991562 -0.04684275 13.125 -0.0625 C14.3625 -0.07087891 15.6 -0.07925781 16.875 -0.08789062 C18.07382812 -0.09111328 19.27265625 -0.09433594 20.5078125 -0.09765625 C21.60754395 -0.10289307 22.70727539 -0.10812988 23.84033203 -0.11352539 C27 0 27 0 33 1 C33 6.28 33 11.56 33 17 C28.47926628 17.02293495 23.95873379 17.04285442 19.43798828 17.05493164 C17.89956987 17.05996552 16.36115625 17.06679308 14.82275391 17.07543945 C12.61359474 17.08754639 10.40449874 17.09323769 8.1953125 17.09765625 C7.16085495 17.10539818 7.16085495 17.10539818 6.10549927 17.11329651 C1.22774341 17.11387171 1.22774341 17.11387171 -1 16 C-0.67 10.72 -0.34 5.44 0 0 Z " fill="#934527" transform="translate(764,1391)"/>
<path d="M0 0 C2.87891898 1.45254548 3.5446149 3.99055651 4.71875 6.8671875 C4.71875 7.5271875 4.71875 8.1871875 4.71875 8.8671875 C3.07421875 10.48828125 3.07421875 10.48828125 0.90625 12.3046875 C-1.59227718 14.41182426 -4.0054556 16.51960148 -6.28125 18.8671875 C-9.68261289 17.48806347 -10.97730565 16.24106891 -12.53125 12.9296875 C-13.03398437 11.89521484 -13.03398437 11.89521484 -13.546875 10.83984375 C-14.28125 8.8671875 -14.28125 8.8671875 -14.28125 5.8671875 C-12.37243566 4.83174576 -10.45385796 3.81428665 -8.53125 2.8046875 C-6.93023437 1.95197266 -6.93023437 1.95197266 -5.296875 1.08203125 C-2.28125 -0.1328125 -2.28125 -0.1328125 0 0 Z " fill="#4A4A59" transform="translate(197.28125,1018.1328125)"/>
<path d="M0 0 C10.89 0 21.78 0 33 0 C33.495 1.485 33.495 1.485 34 3 C30.16779918 3.81790269 26.33405471 4.62833613 22.5 5.4375 C20.88351562 5.78264648 20.88351562 5.78264648 19.234375 6.13476562 C13.49675315 7.34176534 7.83166818 8.38427775 2 9 C0 2.25 0 2.25 0 0 Z " fill="#9C4526" transform="translate(907,1391)"/>
<path d="M0 0 C3.57998324 4.47497905 5.59753825 7.93766989 8 13 C4.04 14.98 4.04 14.98 0 17 C0 11.39 0 5.78 0 0 Z " fill="#9D441D" transform="translate(1130,1307)"/>
<path d="M0 0 C3.89941749 1.29980583 4.53257489 2.93254102 6.6875 6.375 C7.31011719 7.35210938 7.93273438 8.32921875 8.57421875 9.3359375 C10 12 10 12 10 15 C8.68 15.33 7.36 15.66 6 16 C4.9955866 13.7101766 3.99632388 11.4183401 3 9.125 C2.71382812 8.47402344 2.42765625 7.82304688 2.1328125 7.15234375 C0 2.2265625 0 2.2265625 0 0 Z " fill="#9B431E" transform="translate(1043,1346)"/>
<path d="M0 0 C2.97 1.65 5.94 3.3 9 5 C8.34 6.98 7.68 8.96 7 11 C5.66104368 9.33784732 4.32869858 7.67036393 3 6 C2.4225 5.278125 1.845 4.55625 1.25 3.8125 C0 2 0 2 0 0 Z " fill="#764839" transform="translate(442,1288)"/>
<path d="M0 0 C1.98 0.99 3.96 1.98 6 3 C6 3.33 6 3.66 6 4 C3.03 4 0.06 4 -3 4 C-2.01 2.68 -1.02 1.36 0 0 Z " fill="#704436" transform="translate(423,1276)"/>
</svg>
